<svg width="26" height="30" viewBox="0 0 26 30" fill="none" xmlns="http://www.w3.org/2000/svg">
<path d="M10.5 5.50024V6.00024H15.5V5.50024C15.5 4.8372 15.2366 4.20132 14.7678 3.73248C14.2989 3.26364 13.663 3.00024 13 3.00024C12.337 3.00024 11.7011 3.26364 11.2322 3.73248C10.7634 4.20132 10.5 4.8372 10.5 5.50024ZM8.5 6.00024V5.50024C8.5 4.30677 8.97411 3.16218 9.81802 2.31826C10.6619 1.47435 11.8065 1.00024 13 1.00024C14.1935 1.00024 15.3381 1.47435 16.182 2.31826C17.0259 3.16218 17.5 4.30677 17.5 5.50024V6.00024H25C25.2652 6.00024 25.5196 6.1056 25.7071 6.29314C25.8946 6.48067 26 6.73503 26 7.00024C26 7.26546 25.8946 7.51981 25.7071 7.70735C25.5196 7.89489 25.2652 8.00024 25 8.00024H23.492L21.6 24.5682C21.4605 25.7884 20.8768 26.9146 19.9601 27.732C19.0435 28.5494 17.8581 29.0008 16.63 29.0002H9.37C8.14186 29.0008 6.95647 28.5494 6.03985 27.732C5.12323 26.9146 4.53952 25.7884 4.4 24.5682L2.508 8.00024H1C0.734784 8.00024 0.48043 7.89489 0.292893 7.70735C0.105357 7.51981 0 7.26546 0 7.00024C0 6.73503 0.105357 6.48067 0.292893 6.29314C0.48043 6.1056 0.734784 6.00024 1 6.00024H8.5ZM6.388 24.3402C6.47149 25.0722 6.82135 25.7478 7.37092 26.2383C7.92049 26.7289 8.63134 27.0001 9.368 27.0002H16.631C17.3677 27.0001 18.0785 26.7289 18.6281 26.2383C19.1776 25.7478 19.5275 25.0722 19.611 24.3402L21.48 8.00024H4.521L6.388 24.3402ZM10 11.5002C10.2652 11.5002 10.5196 11.6056 10.7071 11.7931C10.8946 11.9807 11 12.235 11 12.5002V22.5002C11 22.7655 10.8946 23.0198 10.7071 23.2074C10.5196 23.3949 10.2652 23.5002 10 23.5002C9.73478 23.5002 9.48043 23.3949 9.29289 23.2074C9.10536 23.0198 9 22.7655 9 22.5002V12.5002C9 12.235 9.10536 11.9807 9.29289 11.7931C9.48043 11.6056 9.73478 11.5002 10 11.5002ZM17 12.5002C17 12.235 16.8946 11.9807 16.7071 11.7931C16.5196 11.6056 16.2652 11.5002 16 11.5002C15.7348 11.5002 15.4804 11.6056 15.2929 11.7931C15.1054 11.9807 15 12.235 15 12.5002V22.5002C15 22.7655 15.1054 23.0198 15.2929 23.2074C15.4804 23.3949 15.7348 23.5002 16 23.5002C16.2652 23.5002 16.5196 23.3949 16.7071 23.2074C16.8946 23.0198 17 22.7655 17 22.5002V12.5002Z" fill="#5E5E75"/>
</svg>
