<svg width="279" height="32" viewBox="0 0 279 32" fill="none" xmlns="http://www.w3.org/2000/svg">
<path d="M15.5977 11.7627H3V10.3564H15.5977V11.7627ZM13.0781 16.9072C13.0781 15.0322 12.1914 14.0947 10.418 14.0947C9.10547 14.0947 8.00781 14.7822 7.125 16.1572C6.34375 17.376 5.95312 18.6729 5.95312 20.0479V23.458L4.03125 22.4502V13.6377H6.04688V15.0322L7.08984 14.2471C8.01172 13.5518 8.98438 13.2041 10.0078 13.2041C11.3984 13.2041 12.5508 13.7432 13.4648 14.8213C14.3242 15.8369 14.7539 17.0518 14.7539 18.4658C14.7539 20.2393 14.0039 21.9424 12.5039 23.5752L10.2422 22.1572C10.9453 21.4619 11.543 20.8213 12.0352 20.2354C12.7305 19.4072 13.0781 18.2979 13.0781 16.9072Z" fill="white"/>
<path d="M27.3511 11.7627H19.5464V13.6377C19.5777 13.6377 19.6089 13.6533 19.6402 13.6846C19.6714 13.7158 19.6987 13.7314 19.7222 13.7314C19.6597 13.7314 19.6245 13.7275 19.6167 13.7197C19.6167 13.6807 20.1987 13.5557 21.3628 13.3447C21.7925 13.2666 22.2183 13.2275 22.6402 13.2275C24.398 13.2275 25.5269 13.7197 26.0269 14.7041C26.3628 15.3604 26.5308 16.6846 26.5308 18.6768V23.1885C26.3667 23.126 25.7456 22.8721 24.6675 22.4268C24.6675 22.1768 24.6167 22.0166 24.5152 21.9463C24.1011 22.1885 23.7612 22.3721 23.4956 22.4971C22.6519 22.8955 21.6714 23.0947 20.5542 23.0947C19.0152 23.0947 17.8277 22.6104 16.9917 21.6416C16.5855 21.1729 16.3823 20.6494 16.3823 20.0713C16.3823 19.4229 16.7027 18.7783 17.3433 18.1377C18.5855 16.8955 20.1284 16.2744 21.9722 16.2744C23.0894 16.2744 23.9878 16.5322 24.6675 17.0479V15.9697C24.3237 15.5322 23.9878 15.2393 23.6597 15.0908C23.3394 14.9424 22.898 14.876 22.3355 14.8916C21.0777 14.915 19.9253 15.1455 18.8784 15.583C18.4097 15.7783 17.9527 15.9541 17.5073 16.1104V15.2432C17.6089 15.1572 17.7573 15.0283 17.9527 14.8564C17.9839 14.8174 18.0034 14.7939 18.0112 14.7861V11.7627H15.6089V10.3564H27.3511V11.7627ZM24.6675 19.1807C24.6675 18.8369 24.2573 18.5283 23.437 18.2549C22.7573 18.0283 22.1909 17.915 21.7378 17.915C20.0894 17.915 18.7691 18.5088 17.7769 19.6963C17.3784 20.1729 17.1792 20.5635 17.1792 20.8682C17.3433 21.4385 17.9878 21.7236 19.1128 21.7236C20.5659 21.7236 21.8941 21.3604 23.0972 20.6338C24.1441 20.001 24.6675 19.5166 24.6675 19.1807Z" fill="white"/>
<path d="M42.3389 10.3564L42.3155 11.7627H41.1202V14.001C40.9795 14.2822 40.6514 14.876 40.1358 15.7822L35.9756 23.0947C35.2803 23.0947 34.3702 22.5439 33.2452 21.4424C32.0108 20.2393 31.3936 18.9033 31.3936 17.4346C31.3936 16.6846 31.6358 15.9854 32.1202 15.3369C32.3389 15.04 32.4483 14.8174 32.4483 14.6689C32.4483 14.3955 32.2178 14.2588 31.7569 14.2588C31.4131 14.2588 31.0811 14.3994 30.7608 14.6807C30.6436 14.7822 30.3897 15.0596 29.9991 15.5127L28.4873 14.1416C29.003 13.7041 29.5069 13.4346 29.9991 13.333C30.2412 13.2783 30.5537 13.251 30.9366 13.251C33.0537 13.2275 34.1123 14.3564 34.1123 16.6377C34.1123 16.9424 34.0772 17.3994 34.0069 18.0088C33.9444 18.6182 33.9131 19.0752 33.9131 19.3799C33.9131 20.6143 34.1319 21.2861 34.5694 21.3955C34.8116 21.3955 35.0967 21.0986 35.4248 20.5049L38.9991 14.0479V11.7627H27.6084V10.3564H42.3389Z" fill="white"/>
<path d="M55.3931 24.9697C55.3931 26.4229 54.69 27.1494 53.2837 27.1494C52.6587 27.1494 51.7525 26.8525 50.565 26.2588C49.2525 25.6025 48.1509 25.2744 47.2603 25.2744C45.3462 25.2744 43.5416 26.0283 41.8462 27.5361C41.0337 28.2627 40.397 29.1182 39.9361 30.1025C39.9048 29.9775 39.8892 29.7783 39.8892 29.5049C39.8892 28.5674 40.1705 27.6338 40.733 26.7041C41.2486 25.8447 41.9166 25.126 42.7369 24.5479C43.6587 23.8994 44.7095 23.5752 45.8892 23.5752C46.7017 23.5752 47.4087 23.7119 48.0103 23.9854C48.3306 24.1338 48.9478 24.5166 49.8619 25.1338C50.6431 25.665 51.2408 25.9307 51.6548 25.9307C52.6861 25.9307 53.5064 25.5049 54.1158 24.6533C54.3814 24.2861 54.5142 23.9268 54.5142 23.5752C54.5142 22.958 54.3267 22.4424 53.9517 22.0283C53.5767 21.6064 53.0845 21.3955 52.4752 21.3955C51.9127 21.3955 50.9869 21.6807 49.6978 22.251C48.4087 22.8135 47.483 23.0947 46.9205 23.0947C46.5064 23.0947 46.0064 22.8877 45.4205 22.4736C44.2017 21.6064 43.5923 20.7979 43.5923 20.0479C43.5923 19.6338 43.8228 19.2549 44.2837 18.9111C44.6978 18.5908 45.1236 18.4111 45.5611 18.3721L45.5845 18.2432L45.0103 17.4346C44.69 16.9814 44.5298 16.4932 44.5298 15.9697C44.5298 14.1729 45.9986 13.2744 48.9361 13.2744C49.022 13.2588 49.0806 13.1885 49.1119 13.0635V11.7627H43.0416V10.3564H55.0884V11.7627H50.9283V13.7314C50.9283 14.0986 51.0337 14.3252 51.2447 14.4111C51.3775 14.4111 51.5455 14.29 51.7486 14.0479L52.1939 13.5088C52.3111 13.3916 52.522 13.3135 52.8267 13.2744C53.3189 13.2744 53.7877 13.5557 54.233 14.1182C54.4361 14.376 54.5689 14.6338 54.6314 14.8916L53.4009 16.2979C53.3853 15.9385 53.3111 15.6104 53.1783 15.3135C52.9986 14.915 52.7642 14.7158 52.4752 14.7158C52.3658 14.7158 52.2369 14.7666 52.0884 14.8682C51.94 14.9697 51.8658 15.0713 51.8658 15.1729C51.8658 15.29 51.9166 15.4307 52.0181 15.5947C52.1353 15.79 52.2017 15.9111 52.2173 15.958C52.272 16.1377 52.2994 16.3643 52.2994 16.6377C52.2994 17.6924 51.8697 18.4072 51.0103 18.7822C50.44 19.0322 49.5416 19.1572 48.315 19.1572C46.7525 19.1572 45.6861 19.5049 45.1158 20.2002C44.8892 20.4736 44.7798 20.6963 44.7877 20.8682C44.7955 21.1025 44.9127 21.3096 45.1392 21.4893C45.3658 21.6611 45.6002 21.7471 45.8423 21.7471C46.2877 21.7471 47.1431 21.4385 48.4087 20.8213C49.9009 20.0947 51.1041 19.7236 52.0181 19.708C52.8541 19.6924 53.5572 20.0635 54.1275 20.8213C54.5884 21.4229 54.9205 22.1885 55.1236 23.1182C55.3033 23.9385 55.3931 24.5557 55.3931 24.9697ZM50.8345 15.5596C50.8345 14.6143 50.3306 14.1416 49.3228 14.1416C48.5103 14.1416 47.7408 14.4268 47.0142 14.9971C46.233 15.6064 45.8423 16.3057 45.8423 17.0947C45.8423 17.5244 46.0064 17.8916 46.3345 18.1963C46.6705 18.501 47.0533 18.6533 47.483 18.6533C47.9283 18.6611 48.4322 18.501 48.9947 18.1729C49.4947 17.8838 49.9087 17.5479 50.2369 17.165C50.6353 16.6963 50.8345 16.1611 50.8345 15.5596Z" fill="white"/>
<path d="M68.5059 11.7627H58.6973V19.2744C58.6973 19.7744 58.8028 20.29 59.0137 20.8213C59.4434 21.9072 60.1544 22.4502 61.1466 22.4502C62.4825 22.4502 63.4981 21.8916 64.1934 20.7744C64.7325 19.915 65.002 19.1064 65.002 18.3486V13.6846H67.3809V23.6689C67.1934 23.5596 66.8419 23.3916 66.3262 23.165L64.9786 22.5674V21.6299C64.0567 22.3018 63.2677 22.7275 62.6114 22.9072C62.213 23.0166 61.7403 23.0713 61.1934 23.0713C59.4591 23.0713 58.1036 22.3096 57.127 20.7861C56.6817 20.0908 56.4591 19.333 56.4591 18.5127V11.7627H55.0411V10.3564H68.5059V11.7627Z" fill="white"/>
<path d="M80.6227 11.7627H68.775V10.3564H80.6227V11.7627ZM79.65 15.9697C79.65 16.4307 79.3727 16.9502 78.818 17.5283C78.3492 18.0205 77.857 18.3877 77.3414 18.6299L75.5836 16.6377C76.1148 16.5908 76.6188 16.3955 77.0953 16.0518C77.6422 15.6611 77.9156 15.2158 77.9156 14.7158C77.9156 14.4502 77.7438 14.2236 77.4 14.0361C77.1031 13.8643 76.8102 13.7783 76.5211 13.7783C75.9195 13.7783 75.275 14.0674 74.5875 14.6455C73.1891 15.8174 72.4898 17.1143 72.4898 18.5361V23.5049L70.2398 22.333V13.6611H72.5133V14.5518C72.8492 14.2158 73.5445 13.8643 74.5992 13.4971C75.1148 13.3174 75.6461 13.2275 76.193 13.2275C77.3258 13.2275 78.2867 13.6611 79.0758 14.5283C79.4586 14.9502 79.65 15.4307 79.65 15.9697Z" fill="white"/>
<path d="M94.0284 11.7627H84.2198V19.2744C84.2198 19.7744 84.3253 20.29 84.5362 20.8213C84.9659 21.9072 85.6769 22.4502 86.6691 22.4502C88.005 22.4502 89.0206 21.8916 89.7159 20.7744C90.255 19.915 90.5245 19.1064 90.5245 18.3486V13.6846H92.9034V23.6689C92.7159 23.5596 92.3644 23.3916 91.8487 23.165L90.5011 22.5674V21.6299C89.5792 22.3018 88.7902 22.7275 88.1339 22.9072C87.7355 23.0166 87.2628 23.0713 86.7159 23.0713C84.9816 23.0713 83.6261 22.3096 82.6495 20.7861C82.2042 20.0908 81.9816 19.333 81.9816 18.5127V11.7627H80.5636V10.3564H94.0284V11.7627Z" fill="white"/>
<path d="M105.337 11.7627H97.6491V14.7861C98.11 14.5205 98.8639 14.1729 99.9108 13.7432C100.34 13.626 100.86 13.5674 101.469 13.5674C102.305 13.5674 103.051 13.7979 103.708 14.2588C104.442 14.7666 104.809 15.4229 104.809 16.2275C104.809 17.3135 104.188 18.1025 102.946 18.5947C102.43 18.7979 101.985 18.8994 101.61 18.8994L104.329 22.2041L102.84 23.2822L98.6569 18.3135L99.4303 16.708C99.8444 16.8252 100.278 16.8838 100.731 16.8838C101.395 16.8838 101.938 16.7275 102.36 16.415C102.837 16.0713 103.075 15.5791 103.075 14.9385C103.075 14.3135 102.63 14.001 101.739 14.001C101.114 14.001 100.45 14.3018 99.7467 14.9033C99.2467 15.333 98.7897 15.8525 98.3756 16.4619C97.8756 17.1963 97.6256 17.8252 97.6256 18.3486V23.2588L95.61 22.3564V11.7627H94.1217V10.3564H95.5397C95.5397 8.11426 95.1334 6.25098 94.3209 4.7666C94.1647 4.47754 93.8639 4.04395 93.4186 3.46582C92.9967 2.91113 92.7038 2.46973 92.5397 2.1416H94.9186C95.3795 2.57129 95.8561 3.27832 96.3483 4.2627C97.1842 5.93457 97.6022 7.96582 97.6022 10.3564H105.337V11.7627Z" fill="white"/>
<path d="M118.801 11.7627H108.992V19.2744C108.992 19.7744 109.098 20.29 109.309 20.8213C109.738 21.9072 110.449 22.4502 111.442 22.4502C112.777 22.4502 113.793 21.8916 114.488 20.7744C115.027 19.915 115.297 19.1064 115.297 18.3486V13.6846H117.676V23.6689C117.488 23.5596 117.137 23.3916 116.621 23.165L115.274 22.5674V21.6299C114.352 22.3018 113.563 22.7275 112.906 22.9072C112.508 23.0166 112.035 23.0713 111.488 23.0713C109.754 23.0713 108.399 22.3096 107.422 20.7861C106.977 20.0908 106.754 19.333 106.754 18.5127V11.7627H105.336V10.3564H118.801V11.7627Z" fill="white"/>
<path d="M124.367 11.7627H123.125V10.3564H124.367V11.7627ZM120.359 11.7627H119.023V10.3564H120.359V11.7627ZM122.738 8.93848V23.3643C122.66 23.3408 122.558 23.2979 122.433 23.2354L121.824 22.9189C121.129 22.5596 120.761 22.3799 120.722 22.3799V8.96191C120.722 8.1416 120.562 7.27051 120.242 6.34863C119.797 5.05957 119.105 3.8877 118.168 2.83301L117.429 2.00098H119.925C121.222 3.29785 122.074 4.8877 122.48 6.77051C122.652 7.56738 122.738 8.29004 122.738 8.93848Z" fill="white"/>
<path d="M142.944 15.489V21.285C142.944 23.2263 141.964 24.197 140.004 24.197H139.5C137.54 24.197 136.56 23.2263 136.56 21.285V6.89298C136.56 5.15698 137.54 4.28898 139.5 4.28898H140.004C141.964 4.28898 142.944 5.25964 142.944 7.20098V12.997L141.46 12.829V7.20098C141.46 6.24898 140.975 5.77298 140.004 5.77298H139.5C138.529 5.77298 138.044 6.14631 138.044 6.89298V21.285C138.044 22.237 138.529 22.713 139.5 22.713H140.004C140.975 22.713 141.46 22.237 141.46 21.285V15.489H142.944ZM144.836 24.001V5.88498H144.332L144.556 4.40098H146.32V22.517H147.3L147.076 24.001H144.836ZM151.528 24.001C150.669 24.001 149.978 23.7583 149.456 23.273C148.952 22.769 148.7 22.1436 148.7 21.397V12.605C148.7 11.7463 148.942 11.1023 149.428 10.673C149.932 10.225 150.641 10.001 151.556 10.001H151.612C151.854 10.001 152.088 10.029 152.312 10.085C152.554 10.141 152.778 10.225 152.984 10.337V10.001H154.468V22.517H154.804L155.028 24.001H152.984V23.301L152.34 24.001H151.528ZM151.024 11.485C150.688 11.485 150.464 11.541 150.352 11.653C150.24 11.765 150.184 11.989 150.184 12.325V21.677C150.184 22.013 150.24 22.237 150.352 22.349C150.464 22.461 150.688 22.517 151.024 22.517H152.984V11.485H151.024ZM156.287 18.961L157.771 19.157V21.201C157.771 22.153 158.256 22.629 159.227 22.629H159.731C160.702 22.629 161.187 22.2556 161.187 21.509L161.159 18.793L156.959 16.805C156.511 16.5996 156.287 16.2263 156.287 15.685V12.493C156.287 10.757 157.267 9.88898 159.227 9.88898H159.983C161.775 9.98231 162.671 10.953 162.671 12.801V15.097L161.187 14.957V12.801C161.187 11.849 160.702 11.373 159.731 11.373H159.227C158.76 11.373 158.396 11.4663 158.135 11.653C157.892 11.821 157.771 12.045 157.771 12.325L157.799 15.629L161.999 17.617C162.447 17.8036 162.671 18.177 162.671 18.737V21.509C162.671 23.245 161.691 24.113 159.731 24.113H158.975C157.183 24.0196 156.287 23.049 156.287 21.201V18.961ZM164.339 18.961L165.823 19.157V21.201C165.823 22.153 166.308 22.629 167.279 22.629H167.783C168.754 22.629 169.239 22.2556 169.239 21.509L169.211 18.793L165.011 16.805C164.563 16.5996 164.339 16.2263 164.339 15.685V12.493C164.339 10.757 165.319 9.88898 167.279 9.88898H168.035C169.827 9.98231 170.723 10.953 170.723 12.801V15.097L169.239 14.957V12.801C169.239 11.849 168.754 11.373 167.783 11.373H167.279C166.812 11.373 166.448 11.4663 166.187 11.653C165.944 11.821 165.823 12.045 165.823 12.325L165.851 15.629L170.051 17.617C170.499 17.8036 170.723 18.177 170.723 18.737V21.509C170.723 23.245 169.743 24.113 167.783 24.113H167.027C165.235 24.0196 164.339 23.049 164.339 21.201V18.961ZM177.843 5.88498L178.123 4.40098H181.483C183.443 4.40098 184.423 5.37164 184.423 7.31298V15.181C184.423 16.917 183.443 17.785 181.483 17.785H179.831V24.001H178.347V5.88498H177.843ZM181.483 5.88498H179.831V16.301H181.483C182.453 16.301 182.939 15.9276 182.939 15.181V7.31298C182.939 6.36098 182.453 5.88498 181.483 5.88498ZM187.794 10.001V11.065L188.438 10.001H189.866V11.653H187.794V24.001H186.31V11.485H185.806L186.03 10.001H187.794ZM196.034 12.801C196.034 12.2223 195.94 11.8396 195.754 11.653C195.567 11.4663 195.175 11.373 194.578 11.373H194.074C193.495 11.373 193.103 11.4663 192.898 11.653C192.711 11.8396 192.618 12.2223 192.618 12.801V21.201C192.618 21.7796 192.711 22.1623 192.898 22.349C193.103 22.5356 193.495 22.629 194.074 22.629H194.578C195.175 22.629 195.567 22.5356 195.754 22.349C195.94 22.1623 196.034 21.7796 196.034 21.201V12.801ZM191.134 21.201V12.801C191.134 10.8596 192.114 9.88898 194.074 9.88898H194.578C196.538 9.88898 197.518 10.8596 197.518 12.801V21.201C197.518 23.1423 196.538 24.113 194.578 24.113H194.074C192.114 24.113 191.134 23.1423 191.134 21.201ZM199.367 8.96498V7.48098H200.795L201.019 8.96498H199.367ZM198.079 26.633V25.149H199.535V11.485H199.143L199.367 10.001H201.019V25.149C201.019 25.597 200.879 25.9516 200.599 26.213C200.338 26.493 199.983 26.633 199.535 26.633H198.079ZM202.699 21.201V12.801C202.699 10.8596 203.679 9.88898 205.639 9.88898H205.947C207.907 9.88898 208.887 10.8596 208.887 12.801V18.177H204.183V21.201C204.183 21.7796 204.276 22.1623 204.463 22.349C204.668 22.5356 205.06 22.629 205.639 22.629H205.947C206.544 22.629 206.936 22.5356 207.123 22.349C207.31 22.1623 207.403 21.7796 207.403 21.201V19.857H208.887V21.201C208.887 23.1423 207.907 24.113 205.947 24.113H205.639C203.679 24.113 202.699 23.1423 202.699 21.201ZM207.403 12.801C207.403 12.2223 207.31 11.8396 207.123 11.653C206.936 11.4663 206.544 11.373 205.947 11.373H205.639C205.06 11.373 204.668 11.4663 204.463 11.653C204.276 11.8396 204.183 12.2223 204.183 12.801V16.693H207.403V12.801ZM210.56 21.201V12.801C210.56 10.8596 211.54 9.88898 213.5 9.88898H213.808C215.768 9.88898 216.748 10.8596 216.748 12.801V16.133L215.264 15.965V12.801C215.264 12.2223 215.171 11.8396 214.984 11.653C214.797 11.4663 214.405 11.373 213.808 11.373H213.5C212.921 11.373 212.529 11.4663 212.324 11.653C212.137 11.8396 212.044 12.2223 212.044 12.801V21.201C212.044 21.7796 212.137 22.1623 212.324 22.349C212.529 22.5356 212.921 22.629 213.5 22.629H213.808C214.405 22.629 214.797 22.5356 214.984 22.349C215.171 22.1623 215.264 21.7796 215.264 21.201V18.149H216.748V21.201C216.748 23.1423 215.768 24.113 213.808 24.113H213.5C211.54 24.113 210.56 23.1423 210.56 21.201ZM222.005 22.517V24.001H220.661C220.213 24.001 219.849 23.8703 219.569 23.609C219.307 23.329 219.177 22.965 219.177 22.517V11.485H218.001L218.225 10.001H219.177V5.88498H218.673L218.897 4.40098H220.661V10.001H222.005L221.781 11.485H220.661V22.517H222.005Z" fill="#F3F3F3"/>
<path d="M236.313 9.83298H237.797V17.449H238.301C238.73 17.449 239.076 17.3183 239.337 17.057C239.617 16.7956 239.757 16.4503 239.757 16.021V9.30098C239.757 8.87164 239.617 8.52631 239.337 8.26498C239.076 8.00364 238.73 7.87298 238.301 7.87298H231.805C231.376 7.87298 231.021 8.00364 230.741 8.26498C230.48 8.52631 230.349 8.87164 230.349 9.30098V21.089C230.349 21.5183 230.48 21.8636 230.741 22.125C231.002 22.3863 231.357 22.517 231.805 22.517H238.301C238.73 22.517 239.076 22.3863 239.337 22.125C239.617 21.8636 239.757 21.5183 239.757 21.089V19.745H241.241V21.089C241.241 21.9476 240.97 22.6476 240.429 23.189C239.888 23.7303 239.178 24.001 238.301 24.001H231.805C230.928 24.001 230.218 23.7303 229.677 23.189C229.136 22.6476 228.865 21.9476 228.865 21.089V9.30098C228.865 8.42364 229.136 7.72364 229.677 7.20098C230.218 6.65964 230.928 6.38898 231.805 6.38898H238.301C239.178 6.38898 239.888 6.65964 240.429 7.20098C240.97 7.72364 241.241 8.42364 241.241 9.30098V16.021C241.241 16.8796 240.97 17.5796 240.429 18.121C239.906 18.6623 239.206 18.933 238.329 18.933H238.301L237.797 18.373V20.557H236.313V19.857L235.669 20.557H234.857C233.998 20.557 233.308 20.3143 232.785 19.829C232.281 19.325 232.029 18.6996 232.029 17.953V12.437C232.029 11.5783 232.281 10.9343 232.785 10.505C233.289 10.057 233.998 9.83298 234.913 9.83298C235.174 9.83298 235.417 9.87031 235.641 9.94498C235.884 10.001 236.108 10.0756 236.313 10.169V9.83298ZM234.353 11.317C234.017 11.317 233.793 11.373 233.681 11.485C233.569 11.597 233.513 11.821 233.513 12.157V18.233C233.513 18.569 233.569 18.793 233.681 18.905C233.793 19.017 234.017 19.073 234.353 19.073H236.313V11.317H234.353ZM242.793 5.88498L243.073 4.40098H246.433C248.393 4.40098 249.373 5.37164 249.373 7.31298V15.181C249.373 16.301 248.943 17.0663 248.085 17.477L249.961 24.001H248.449L246.685 17.785C246.61 17.785 246.526 17.785 246.433 17.785H244.781V24.001H243.297V5.88498H242.793ZM246.433 5.88498H244.781V16.301H246.433C247.403 16.301 247.889 15.9276 247.889 15.181V7.31298C247.889 6.36098 247.403 5.88498 246.433 5.88498ZM251.094 21.201V12.801C251.094 10.8596 252.074 9.88898 254.034 9.88898H254.342C256.302 9.88898 257.282 10.8596 257.282 12.801V18.177H252.578V21.201C252.578 21.7796 252.672 22.1623 252.858 22.349C253.064 22.5356 253.456 22.629 254.034 22.629H254.342C254.94 22.629 255.332 22.5356 255.518 22.349C255.705 22.1623 255.798 21.7796 255.798 21.201V19.857H257.282V21.201C257.282 23.1423 256.302 24.113 254.342 24.113H254.034C252.074 24.113 251.094 23.1423 251.094 21.201ZM255.798 12.801C255.798 12.2223 255.705 11.8396 255.518 11.653C255.332 11.4663 254.94 11.373 254.342 11.373H254.034C253.456 11.373 253.064 11.4663 252.858 11.653C252.672 11.8396 252.578 12.2223 252.578 12.801V16.693H255.798V12.801ZM261.783 24.001C260.924 24.001 260.234 23.7583 259.711 23.273C259.207 22.769 258.955 22.1436 258.955 21.397V12.605C258.955 11.7463 259.198 11.1023 259.683 10.673C260.187 10.225 260.896 10.001 261.811 10.001H261.867C262.11 10.001 262.343 10.029 262.567 10.085C262.81 10.141 263.034 10.225 263.239 10.337V10.001H264.723V22.517H265.059L265.283 24.001H263.239V23.301L262.595 24.001H261.783ZM261.279 11.485C260.943 11.485 260.719 11.541 260.607 11.653C260.495 11.765 260.439 11.989 260.439 12.325V21.677C260.439 22.013 260.495 22.237 260.607 22.349C260.719 22.461 260.943 22.517 261.279 22.517H263.239V11.485H261.279ZM266.542 21.201V12.801C266.542 10.8596 267.522 9.88898 269.482 9.88898H269.79C271.75 9.88898 272.73 10.8596 272.73 12.801V16.133L271.246 15.965V12.801C271.246 12.2223 271.153 11.8396 270.966 11.653C270.78 11.4663 270.388 11.373 269.79 11.373H269.482C268.904 11.373 268.512 11.4663 268.306 11.653C268.12 11.8396 268.026 12.2223 268.026 12.801V21.201C268.026 21.7796 268.12 22.1623 268.306 22.349C268.512 22.5356 268.904 22.629 269.482 22.629H269.79C270.388 22.629 270.78 22.5356 270.966 22.349C271.153 22.1623 271.246 21.7796 271.246 21.201V18.149H272.73V21.201C272.73 23.1423 271.75 24.113 269.79 24.113H269.482C267.522 24.113 266.542 23.1423 266.542 21.201ZM277.987 22.517V24.001H276.643C276.195 24.001 275.831 23.8703 275.551 23.609C275.29 23.329 275.159 22.965 275.159 22.517V11.485H273.983L274.207 10.001H275.159V5.88498H274.655L274.879 4.40098H276.643V10.001H277.987L277.763 11.485H276.643V22.517H277.987Z" fill="#F85146"/>
</svg>
