<svg width="24" height="29" viewBox="0 0 24 29" fill="none" xmlns="http://www.w3.org/2000/svg">
<path d="M1.56488 19.6242L1.56484 19.624C1.46748 19.1151 1.55019 18.5875 1.79913 18.1335C2.04813 17.6793 2.44804 17.3271 2.92987 17.1402L2.93038 17.14L3.57093 16.8924L1.56488 19.6242ZM1.56488 19.6242L2.11255 22.4804L2.11255 22.4804C2.21649 23.0223 2.4717 23.5236 2.84884 23.9245C3.22604 24.3255 3.70948 24.6094 4.24236 24.7418L4.24243 24.7418L14.5574 27.3022C15.8122 27.6137 17.1375 27.4108 18.2445 26.7385C19.3512 26.0663 20.1494 24.9801 20.4676 23.7174L20.4676 23.7173L22.3811 16.1183L22.3811 16.1182C22.4885 15.6915 22.4981 15.2456 22.4093 14.8146C22.3205 14.3835 22.1355 13.9782 21.868 13.6298C21.6005 13.2814 21.2575 12.9989 20.8649 12.8044C20.4722 12.6099 20.0405 12.5086 19.6028 12.5086M1.56488 19.6242L19.6028 12.5086M13.6813 3.2614C13.6129 3.53294 13.5412 3.8036 13.4663 4.07333L13.6813 3.2614ZM13.6813 3.2614C13.9382 2.27285 14.064 2.05515 14.0802 2.05515C15.2539 2.05515 16.118 3.40243 16.118 5.75059C16.118 6.96095 15.6772 8.94764 14.7874 11.6586M13.6813 3.2614L8.1726 13.0937M8.1726 13.0937L8.17262 13.0936L12.0495 6.95148L12.0502 6.95035C12.1452 6.80077 12.2191 6.6344 12.2686 6.46017L12.2691 6.45849C12.6096 5.27496 12.8471 4.43456 12.9845 3.93963L12.9845 3.93941C13.0584 3.67362 13.129 3.40692 13.1964 3.13936L13.1973 3.13563C13.3281 2.63269 13.4284 2.31387 13.5018 2.1147C13.5382 2.01605 13.5709 1.93861 13.6007 1.87943C13.6148 1.85145 13.6341 1.8158 13.6587 1.78057C13.6699 1.76456 13.6925 1.73339 13.7261 1.70055C13.7426 1.68437 13.7733 1.65631 13.8172 1.62944C13.854 1.60685 13.9479 1.55515 14.0802 1.55515C14.8902 1.55515 15.5452 2.03019 15.9726 2.77292C16.3937 3.50466 16.618 4.5241 16.618 5.75059C16.618 7.04767 16.1532 9.10073 15.2625 11.8143M8.1726 13.0937C7.07895 14.8267 5.46588 16.1576 3.57135 16.8922L8.1726 13.0937ZM15.2625 11.8143C15.2625 11.8144 15.2625 11.8145 15.2625 11.8146L14.7874 11.6586M15.2625 11.8143C15.2626 11.8143 15.2626 11.8143 15.2626 11.8142L14.7874 11.6586M15.2625 11.8143C15.2364 11.8942 15.2294 11.9793 15.242 12.0626C15.2546 12.146 15.2866 12.2247 15.3347 12.2923C15.3829 12.3599 15.4458 12.4144 15.5178 12.4518C15.5898 12.4892 15.6692 12.5086 15.7495 12.5086M14.7874 11.6586C14.7369 11.8128 14.7233 11.977 14.7476 12.1376C14.772 12.2982 14.8336 12.4506 14.9275 12.5824C15.0213 12.7142 15.1447 12.8215 15.2875 12.8956C15.4303 12.9697 15.5884 13.0085 15.7489 13.0086M15.7495 12.5086H15.7489V13.0086M15.7495 12.5086L15.7489 13.0086M15.7495 12.5086H19.6027L19.6028 13.0086M15.7489 13.0086H19.6028M19.6028 13.0086V12.5086M19.6028 13.0086C19.9633 13.0086 20.3191 13.092 20.6429 13.2524C20.9668 13.4128 21.2502 13.6461 21.4714 13.9343C21.6927 14.2225 21.846 14.5581 21.9196 14.9155C21.9932 15.2728 21.9852 15.6425 21.8962 15.9962L19.6028 12.5086M11.998 3.65165L11.9981 3.65096C12.0523 3.4555 12.1034 3.25969 12.2046 2.86331C12.4541 1.90386 12.6772 1.31604 12.9585 0.962863C13.2004 0.659107 13.5089 0.5 14.0815 0.5C15.162 0.5 16.0315 1.00585 16.6494 1.90471C17.2773 2.81822 17.6478 4.14814 17.6478 5.75059C17.6478 6.92043 17.3284 8.58767 16.6614 10.8112L16.4683 11.4549H17.1403H19.6041H19.6043C20.1967 11.4547 20.7816 11.5917 21.3144 11.8555C21.8471 12.1194 22.3139 12.5033 22.6786 12.9785C23.0433 13.4537 23.2963 14.0074 23.4178 14.5975C23.5393 15.1876 23.526 15.798 23.3789 16.3821L23.8637 16.5042L23.3789 16.3821L21.4654 23.9811C21.0789 25.516 20.1099 26.8326 18.7715 27.6458C17.4332 28.4588 15.833 28.7036 14.3182 28.3279L4.00329 25.7675L4.00325 25.7675C3.28133 25.5884 2.62439 25.2033 2.11058 24.657C1.59675 24.1107 1.24767 23.4261 1.10553 22.6839C1.10552 22.6838 1.10552 22.6838 1.10551 22.6838L0.559218 19.8277L0.559182 19.8276C0.414393 19.0722 0.537299 18.2895 0.905641 17.6175C1.27391 16.9456 1.86344 16.4281 2.56938 16.1543L3.20885 15.9066L3.2089 15.9065C4.90012 15.2511 6.33786 14.064 7.31171 12.5211L7.31179 12.521L11.1853 6.37994C11.2281 6.31282 11.2611 6.24004 11.2835 6.16381L11.2843 6.16103C11.6224 4.98329 11.8608 4.14379 11.998 3.65165Z" fill="#5E5E75" stroke="#5E5E75"/>
</svg>
